# Blender 4.1.1
# www.blender.org
mtllib ../assets/cheese.mtl
o Queijo
v -0.252008 0.937659 0.704499
v -0.252008 1.314182 0.704499
v -0.424757 0.937659 0.140003
v -0.424757 1.099154 0.140003
v 0.070562 0.937659 0.510287
v 0.070562 1.314182 0.510287
v -0.347503 0.937659 0.093490
v -0.347503 1.099154 0.093490
v -0.196252 0.930792 0.743728
v -0.196252 1.252251 0.743728
v 0.079144 1.252251 0.577918
v 0.079144 0.930792 0.577918
v -0.390207 0.937659 0.252902
v -0.355657 0.937659 0.365801
v -0.321108 0.937659 0.478701
v -0.286558 0.937659 0.591600
v -0.286558 1.271177 0.591600
v -0.321108 1.228171 0.478701
v -0.376762 1.039909 0.248788
v -0.390207 1.142160 0.252902
v -0.013051 0.937659 0.426928
v -0.096664 0.937659 0.343568
v -0.180277 0.937659 0.260209
v -0.263890 0.937659 0.176850
v -0.263890 1.142160 0.176850
v -0.180277 1.185165 0.260209
v -0.096664 1.228171 0.343568
v -0.013051 1.271177 0.426928
v -0.252008 1.031790 0.704499
v -0.252008 1.125920 0.704499
v -0.252008 1.220051 0.704499
v -0.424757 1.058780 0.140003
v -0.424757 1.018406 0.140003
v -0.424757 0.978032 0.140003
v -0.347503 1.058780 0.093490
v -0.347503 1.018406 0.093490
v -0.347503 0.978032 0.093490
v 0.070562 1.220051 0.510287
v 0.070562 1.125920 0.510287
v 0.070562 1.031790 0.510287
v -0.196252 1.011157 0.743728
v -0.196252 1.091522 0.743728
v -0.196252 1.171886 0.743728
v 0.079144 1.171886 0.577918
v 0.079144 1.091522 0.577918
v 0.079144 1.011157 0.577918
v -0.263890 1.091034 0.176850
v -0.263890 1.039909 0.176850
v -0.263890 0.988784 0.176850
v -0.180277 1.123289 0.260209
v -0.180277 1.061412 0.260209
v -0.180277 0.999535 0.260209
v -0.096664 1.155543 0.343568
v -0.096664 1.082915 0.343568
v -0.096664 1.010287 0.343568
v -0.013051 1.187797 0.426928
v -0.013051 1.104418 0.426928
v -0.013051 1.021038 0.426928
v -0.286558 1.187797 0.591600
v -0.286558 1.104418 0.591600
v -0.286558 1.021038 0.591600
v -0.321108 1.155543 0.478701
v -0.321108 1.082915 0.478701
v -0.321108 1.010287 0.478701
v -0.355657 1.123289 0.365801
v -0.355657 1.061412 0.365801
v -0.355657 0.999535 0.365801
v -0.390207 1.091034 0.252902
v -0.390207 1.039909 0.252902
v -0.390207 0.988784 0.252902
v -0.252008 1.267117 0.704499
v -0.196252 1.212069 0.743728
v -0.424757 1.078967 0.140003
v -0.347503 1.078967 0.093490
v 0.070562 1.267117 0.510287
v 0.079144 1.212069 0.577918
v -0.263890 1.116597 0.176850
v -0.180277 1.154227 0.260209
v -0.096664 1.191857 0.343568
v -0.013051 1.229487 0.426928
v -0.286558 1.229487 0.591600
v -0.321108 1.191857 0.478701
v -0.355657 1.154227 0.365801
v -0.390207 1.116597 0.252902
v -0.424757 0.957846 0.140003
v -0.347503 0.957846 0.093490
v 0.070562 0.984724 0.510287
v 0.079144 0.970975 0.577918
v -0.263890 0.963221 0.176850
v -0.180277 0.968597 0.260209
v -0.096664 0.973973 0.343568
v -0.013051 0.979348 0.426928
v -0.286558 0.979348 0.591600
v -0.321108 0.973973 0.478701
v -0.355657 0.968597 0.365801
v -0.390207 0.963221 0.252902
v -0.252008 0.984724 0.704499
v -0.196252 0.970975 0.743728
v -0.269283 0.937659 0.648050
v 0.028756 1.292679 0.468607
v -0.269283 1.292679 0.648050
v 0.028756 0.937659 0.468607
v -0.269283 1.026414 0.648050
v -0.269283 1.115169 0.648050
v -0.269283 1.203924 0.648050
v 0.028756 1.026414 0.468607
v 0.028756 1.115169 0.468607
v 0.028756 1.203924 0.468607
v -0.269283 1.248302 0.648050
v 0.028756 1.248302 0.468607
v 0.028756 0.982036 0.468607
v -0.269283 0.982036 0.648050
v -0.303833 0.937659 0.535150
v -0.303833 1.249674 0.535150
v -0.054857 0.937659 0.385248
v -0.054857 1.249674 0.385248
v -0.303833 1.015662 0.535150
v -0.303833 1.093666 0.535150
v -0.303833 1.171670 0.535150
v -0.054857 1.015662 0.385248
v -0.054857 1.093666 0.385248
v -0.054857 1.171670 0.385248
v -0.303833 1.210672 0.535150
v -0.054857 1.210672 0.385248
v -0.054857 0.976660 0.385248
v -0.303833 0.976660 0.535150
v -0.386130 0.937659 0.116746
v -0.386130 1.099154 0.116746
v -0.090723 0.937659 0.607393
v -0.090723 1.314182 0.607393
v -0.058554 0.930792 0.660823
v -0.058554 1.252251 0.660823
v -0.327049 1.142160 0.214876
v -0.267967 1.185165 0.313005
v -0.208886 1.228171 0.411134
v -0.149804 1.271177 0.509264
v -0.327049 0.937659 0.214876
v -0.267967 0.937659 0.313005
v -0.208886 0.937659 0.411134
v -0.149804 0.937659 0.509264
v -0.058554 1.011157 0.660823
v -0.058554 1.091522 0.660823
v -0.058554 1.171886 0.660823
v -0.386130 0.978032 0.116746
v -0.386130 1.018406 0.116746
v -0.386130 1.058780 0.116746
v -0.058554 1.212069 0.660823
v -0.386130 1.078967 0.116746
v -0.386130 0.957846 0.116746
v -0.058554 0.970975 0.660823
v -0.120264 1.292679 0.558329
v -0.120264 0.937659 0.558329
v -0.179345 0.937659 0.460199
v -0.320379 1.191851 0.422386
v -0.366817 1.099154 0.105118
v -0.010080 0.937659 0.558840
v 0.010295 0.930792 0.619371
v -0.295469 1.142160 0.195863
v -0.224122 1.185165 0.286607
v -0.152775 1.228171 0.377351
v -0.081428 1.271177 0.468096
v -0.366817 0.978032 0.105118
v -0.366817 1.018406 0.105118
v -0.366817 1.058780 0.105118
v -0.366817 1.078967 0.105118
v -0.366817 0.957846 0.105118
v -0.045754 1.292679 0.513468
v -0.117101 1.249674 0.422724
v -0.366817 0.937659 0.105118
v -0.010080 1.314182 0.558840
v 0.010295 1.252251 0.619371
v -0.295469 0.937659 0.195863
v -0.224122 0.937659 0.286607
v -0.152775 0.937659 0.377351
v -0.081428 0.937659 0.468096
v 0.010295 1.011157 0.619371
v 0.010295 1.091522 0.619371
v 0.010295 1.171886 0.619371
v 0.010295 1.212069 0.619371
v 0.010295 0.970975 0.619371
v -0.045754 0.937659 0.513468
v -0.117101 0.937659 0.422724
v -0.405443 0.937659 0.128375
v -0.171366 1.314182 0.655946
v -0.127403 1.252251 0.702276
v -0.358628 0.937659 0.233889
v -0.311812 0.937659 0.339403
v -0.264997 0.937659 0.444918
v -0.218181 0.937659 0.550432
v -0.127403 1.011157 0.702276
v -0.127403 1.091522 0.702276
v 0.066151 1.091522 0.556338
v -0.127403 1.212069 0.702276
v -0.127403 0.970975 0.702276
v -0.194773 0.937659 0.603189
v -0.241589 0.937659 0.497675
v -0.405443 1.099154 0.128375
v -0.171366 0.937659 0.655946
v -0.127403 0.930792 0.702276
v -0.358628 1.142160 0.233889
v -0.311812 1.185165 0.339403
v -0.264997 1.228171 0.444918
v -0.218181 1.271177 0.550432
v -0.405443 0.978032 0.128375
v -0.405443 1.018406 0.128375
v -0.405443 1.058780 0.128375
v -0.405443 1.078967 0.128375
v -0.405443 0.957846 0.128375
v -0.194773 1.292679 0.603189
v -0.241589 1.249674 0.497675
v -0.338382 0.937659 0.422251
v -0.338382 1.206668 0.422251
v -0.138471 0.937659 0.301889
v -0.138471 1.206668 0.301889
v -0.338382 1.004911 0.422251
v -0.338382 1.072163 0.422251
v -0.338382 1.139416 0.422251
v -0.138471 1.004911 0.301889
v -0.138471 1.072163 0.301889
v -0.138471 1.139416 0.301889
v -0.338382 1.173042 0.422251
v -0.138471 1.173042 0.301889
v -0.138471 0.971285 0.301889
v -0.338382 0.971285 0.422251
v -0.238427 0.937659 0.362070
v -0.238427 1.206668 0.362070
v -0.188449 1.206668 0.331979
v -0.188449 0.937659 0.331979
v -0.288404 0.937659 0.392160
v -0.288404 1.206668 0.392160
v -0.372932 0.937659 0.309352
v -0.372932 1.163663 0.309352
v -0.222084 0.937659 0.218529
v -0.222084 1.163663 0.218529
v -0.372932 0.994160 0.309352
v -0.372932 1.050661 0.309352
v -0.372932 1.107162 0.309352
v -0.222084 0.994160 0.218529
v -0.222084 1.050661 0.218529
v -0.222084 1.107162 0.218529
v -0.372932 1.135412 0.309352
v -0.222084 1.135412 0.218529
v -0.222084 0.965909 0.218529
v -0.372932 0.965909 0.309352
v -0.297508 0.937659 0.263940
v -0.297508 1.163663 0.263940
v -0.259796 1.163663 0.241235
v -0.259796 0.937659 0.241235
v -0.335220 0.937659 0.286646
v -0.335220 1.163663 0.286646
v -0.407482 1.120657 0.196452
v -0.305697 0.937659 0.135170
v -0.407482 0.937659 0.196452
v -0.305697 1.120657 0.135170
v -0.305697 0.983408 0.135170
v -0.305697 1.029158 0.135170
v -0.305697 1.074907 0.135170
v -0.407482 0.983408 0.196452
v -0.407482 1.029158 0.196452
v -0.407482 1.074907 0.196452
v -0.305697 1.097782 0.135170
v -0.407482 1.097782 0.196452
v -0.407482 0.960533 0.196452
v -0.305697 0.960533 0.135170
v -0.356589 0.937659 0.165811
v -0.356589 1.120657 0.165811
v -0.331143 1.120657 0.150491
v -0.331143 0.937659 0.150491
v -0.382035 0.937659 0.181132
v -0.382035 1.120657 0.181132
v -0.036663 1.229487 0.450612
v -0.036663 1.187797 0.450612
v 0.005144 1.203924 0.492291
v 0.005144 1.248302 0.492291
v -0.126400 1.155543 0.373395
v -0.126400 1.082915 0.373395
v -0.084594 1.093666 0.415075
v -0.084594 1.171670 0.415075
v -0.207501 1.154227 0.287515
v -0.207501 1.123289 0.287515
v -0.249307 1.107162 0.245836
v -0.249307 1.135412 0.245836
v -0.198805 0.999535 0.278794
v -0.198805 0.968597 0.278794
v -0.156999 1.004911 0.320473
v -0.156999 0.971285 0.320473
v -0.291149 1.091034 0.204192
v -0.291149 1.039909 0.204192
v -0.332956 1.029158 0.162512
v -0.332956 1.074907 0.162512
v -0.261059 1.207839 0.451457
v -0.204948 1.207839 0.417674
v -0.214244 1.250845 0.556972
v -0.145867 1.250845 0.515804
v -0.237651 1.229342 0.504215
v -0.175408 1.229342 0.466739
v -0.148837 1.207839 0.383891
v -0.077490 1.250845 0.474636
v -0.113164 1.229342 0.429264
v -0.337654 1.170349 0.365936
v -0.337654 1.139410 0.365936
v -0.320379 1.158225 0.422386
v -0.293809 1.170349 0.339538
v -0.317217 1.148846 0.286781
v -0.270401 1.191851 0.392295
v -0.354929 1.148846 0.309486
v -0.354929 1.120595 0.309486
v -0.376762 0.988784 0.248788
v -0.359487 0.994160 0.305237
v -0.359487 1.050661 0.305237
v -0.259275 1.187797 0.583251
v -0.259275 1.104418 0.583251
v -0.276550 1.093666 0.526801
v -0.276550 1.171670 0.526801
v -0.291529 1.010287 0.469649
v -0.291529 0.973973 0.469649
v -0.308804 1.004911 0.413199
v -0.308804 0.971285 0.413199
v -0.212723 1.091522 0.716372
v -0.212723 1.171886 0.716372
v -0.143874 1.091522 0.674919
v -0.143874 1.171886 0.674919
v -0.212723 1.212069 0.716372
v -0.143874 1.212069 0.674919
v -0.075025 1.212069 0.633467
v -0.075025 1.171886 0.633467
v -0.075025 1.091522 0.633467
v 0.066151 1.011157 0.556338
v -0.002698 1.011157 0.597790
v -0.002698 1.091522 0.597790
vn -0.9562 -0.0000 0.2926
vn -0.5158 -0.0000 -0.8567
vn 0.7060 -0.0000 -0.7082
vn 0.3634 0.7096 0.6037
vn -0.0000 -1.0000 -0.0000
vn -0.1813 0.9362 -0.3011
vn 0.5158 -0.0000 0.8567
vn 0.9920 -0.0000 -0.1259
vn -0.5754 -0.0000 0.8179
vn -0.0564 -0.9940 -0.0938
vn -0.4355 -0.5358 -0.7234
vn 0.5809 0.7021 -0.4118
vn -0.0265 0.9959 -0.0867
vn -0.1269 0.9838 -0.1265
vn 0.8567 -0.0000 -0.5158
vn -0.1866 0.9647 -0.1861
vn -0.0000 1.0000 -0.0000
vn -0.7082 -0.0000 -0.7060
vn -0.2926 -0.0000 -0.9562
vn -0.4829 -0.3515 -0.8020
vn -0.7948 0.0409 0.6055
vn 0.9070 0.0409 -0.4191
vn -0.8567 -0.0000 0.5158
vn -0.0322 0.9990 -0.0321
vn -0.5479 -0.6611 0.5126
vn -0.0075 -0.0000 1.0000
vn 0.7082 -0.0000 0.7060
vn 0.2150 -0.9528 0.2144
vn 0.1866 -0.9647 0.1861
vn 0.0642 -0.9959 0.0640
vn 0.4829 0.3515 0.8020
vn 0.4355 0.5358 0.7234
vn 0.0075 -0.0000 -1.0000
vn 0.0524 -0.9838 0.1713
vn 0.2926 -0.0000 0.9562
vn 0.0771 -0.9647 0.2520
vn -0.0524 0.9838 -0.1713
vn 0.0265 -0.9959 0.0867
vn -0.0133 0.9990 -0.0435
vt 0.134061 0.470943
vt 0.135166 0.518208
vt 0.118960 0.518208
vt 0.507809 0.518208
vt 0.525908 0.534397
vt 0.507809 0.534397
vt 0.598243 0.425388
vt 0.577717 0.472653
vt 0.562617 0.425388
vt 0.277511 0.744914
vt 0.207786 0.798380
vt 0.207786 0.733863
vt 0.626992 0.095892
vt 0.691070 0.049927
vt 0.696814 0.095892
vt 0.626988 0.558621
vt 0.691070 0.509579
vt 0.696809 0.558621
vt 0.181813 0.798380
vt 0.181813 0.733863
vt 0.565819 0.518208
vt 0.533560 0.518208
vt 0.005477 0.045555
vt 0.032259 -0.000000
vt 0.043261 0.045555
vt 0.637625 -0.000000
vt 0.702142 -0.000000
vt 0.718879 0.950958
vt 0.736985 0.901916
vt 0.742724 0.950958
vt 0.525908 0.710297
vt 0.538139 0.744803
vt 0.525908 0.757130
vt 0.672933 0.754789
vt 0.714027 0.705747
vt 0.719767 0.754789
vt 0.649961 0.656705
vt 0.702549 0.607663
vt 0.708288 0.656705
vt 0.718918 0.463614
vt 0.737020 0.417649
vt 0.742763 0.463614
vt 0.695937 0.371683
vt 0.725532 0.325718
vt 0.731276 0.371683
vt 0.672955 0.279753
vt 0.714045 0.233788
vt 0.719788 0.279753
vt 0.649974 0.187823
vt 0.702557 0.141857
vt 0.708301 0.187823
vt 0.460176 0.047265
vt 0.456912 0.094531
vt 0.441812 0.047265
vt 0.494693 0.141796
vt 0.487114 0.189061
vt 0.472013 0.141796
vt 0.529209 0.236327
vt 0.517315 0.283592
vt 0.502214 0.236327
vt 0.563726 0.330857
vt 0.547516 0.378123
vt 0.532416 0.330857
vt 0.254866 0.092820
vt 0.273234 0.140086
vt 0.239765 0.140086
vt 0.224665 0.187351
vt 0.238717 0.234616
vt 0.209564 0.234616
vt 0.565106 0.844396
vt 0.579493 0.885213
vt 0.565106 0.890298
vt 0.164262 0.376412
vt 0.169683 0.423678
vt 0.149162 0.423678
vt 0.028185 0.376412
vt 0.046553 0.423678
vt 0.026031 0.423678
vt 0.408398 0.711760
vt 0.419651 0.758527
vt 0.408398 0.758348
vt 0.096223 0.376412
vt 0.128640 0.423678
vt 0.087596 0.423678
vt 0.032492 0.281882
vt 0.055176 0.329147
vt 0.030339 0.329147
vt 0.059487 0.281882
vt 0.104851 0.329147
vt 0.113478 0.281882
vt 0.154525 0.329147
vt 0.036800 0.187351
vt 0.063799 0.234616
vt 0.034646 0.234616
vt 0.068111 0.187351
vt 0.122105 0.234616
vt 0.130732 0.187351
vt 0.180411 0.234616
vt 0.041107 0.092820
vt 0.072422 0.140086
vt 0.038954 0.140086
vt 0.076734 0.092820
vt 0.139359 0.140086
vt 0.147987 0.092820
vt 0.206297 0.140086
vt 0.375861 0.330857
vt 0.346704 0.378123
vt 0.344551 0.330857
vt 0.438483 0.330857
vt 0.380173 0.378123
vt 0.501105 0.330857
vt 0.447110 0.378123
vt 0.367238 0.236327
vt 0.342397 0.283592
vt 0.340243 0.236327
vt 0.421229 0.236327
vt 0.371550 0.283592
vt 0.475219 0.236327
vt 0.429856 0.283592
vt 0.358615 0.141796
vt 0.338089 0.189061
vt 0.335936 0.141796
vt 0.403974 0.141796
vt 0.362927 0.189061
vt 0.449333 0.141796
vt 0.412601 0.189061
vt 0.349992 0.047265
vt 0.333782 0.094531
vt 0.331628 0.047265
vt 0.386720 0.047265
vt 0.354304 0.094531
vt 0.349220 0.823252
vt 0.318302 0.775671
vt 0.349220 0.775413
vt 0.232182 0.045555
vt 0.225810 -0.000000
vt 0.269967 0.045555
vt 0.156614 0.045555
vt 0.193551 -0.000000
vt 0.081045 0.045555
vt 0.129034 -0.000000
vt 0.351012 0.472653
vt 0.372268 0.518208
vt 0.340009 0.518208
vt 0.388796 0.472653
vt 0.436785 0.518208
vt 0.464365 0.472653
vt 0.501302 0.518208
vt 0.025973 0.733863
vt 0.051947 0.798380
vt 0.025973 0.798380
vt 0.103893 0.733863
vt 0.051947 0.733863
vt 0.615131 0.744019
vt 0.589874 0.679507
vt 0.615131 0.679502
vt 0.384485 0.425388
vt 0.348858 0.425388
vt 0.455737 0.425388
vt 0.526990 0.425388
vt 0.507809 0.615341
vt 0.525908 0.631530
vt 0.507809 0.631530
vt 0.507809 0.582963
vt 0.525908 0.615341
vt 0.507809 0.550586
vt 0.525908 0.582963
vt 0.023877 0.470943
vt 0.037930 0.518208
vt 0.021724 0.518208
vt 0.042241 0.470943
vt 0.070342 0.518208
vt 0.078969 0.470943
vt 0.102754 0.518208
vt 0.258068 -0.000000
vt 0.307751 0.045555
vt 0.141583 0.376412
vt 0.167468 0.281882
vt 0.179363 0.329147
vt 0.193354 0.187351
vt 0.219240 0.092820
vt 0.514048 0.378123
vt 0.488162 0.283592
vt 0.406474 0.823799
vt 0.375595 0.774762
vt 0.406474 0.774694
vt 0.436391 0.094531
vt 0.423448 0.047265
vt 0.539933 0.472653
vt 0.324776 0.710896
vt 0.349220 0.775390
vt 0.324776 0.775413
vt 0.525908 0.550586
vt 0.115697 0.470943
vt 0.005513 0.470943
vt 0.005517 0.518208
vt 0.525908 0.647718
vt 0.507809 0.647718
vt 0.313228 0.472653
vt 0.313232 0.425388
vt 0.000000 0.798380
vt 0.000000 0.733863
vt 0.307751 0.518208
vt 0.313260 0.094531
vt 0.313264 0.047265
vt 0.313252 0.189061
vt 0.313256 0.141796
vt 0.313244 0.283592
vt 0.313248 0.236327
vt 0.313236 0.378123
vt 0.313240 0.330857
vt 0.005481 0.092820
vt 0.005485 0.140086
vt 0.005489 0.187351
vt 0.005493 0.234616
vt 0.005497 0.281882
vt 0.005501 0.329147
vt 0.005505 0.376412
vt 0.005509 0.423678
vt 0.064517 -0.000000
vt 0.607274 0.875052
vt 0.581227 0.839765
vt 0.607274 0.839464
vt 0.290492 0.092820
vt 0.638474 0.607663
vt 0.638483 0.141857
vt 0.580985 0.378123
vt 0.487243 0.754717
vt 0.453515 0.802836
vt 0.453515 0.754997
vt 0.349220 0.754771
vt 0.371441 0.821894
vt 0.349220 0.821636
vt 0.255976 0.187351
vt 0.546468 0.283592
vt 0.661465 0.233788
vt 0.661447 0.705747
vt 0.573285 0.582283
vt 0.589874 0.646357
vt 0.573285 0.646357
vt 0.819205 0.233788
vt 0.766628 0.187823
vt 0.824955 0.187823
vt 0.830706 0.141857
vt 0.766635 0.095892
vt 0.836456 0.095892
vt 0.830697 0.607663
vt 0.766630 0.558621
vt 0.836452 0.558621
vt 0.025973 0.604829
vt 0.000000 0.669346
vt 0.000000 0.604829
vt 0.471613 0.631530
vt 0.489711 0.647718
vt 0.471613 0.647718
vt 0.471613 0.534397
vt 0.489711 0.550586
vt 0.471613 0.550586
vt 0.181813 0.604829
vt 0.155840 0.669346
vt 0.155840 0.604829
vt 0.489711 0.582963
vt 0.471613 0.582963
vt 0.489711 0.615341
vt 0.471613 0.615341
vt 0.489711 0.631530
vt 0.103893 0.669346
vt 0.103893 0.604829
vt 0.051947 0.669346
vt 0.051947 0.604829
vt 0.025973 0.669346
vt 0.766631 0.141857
vt 0.813455 0.279753
vt 0.766625 0.233788
vt 0.801954 0.371683
vt 0.766618 0.325718
vt 0.807704 0.325718
vt 0.790454 0.463614
vt 0.766612 0.417649
vt 0.796204 0.417649
vt 0.582506 0.793107
vt 0.565106 0.745841
vt 0.582506 0.745538
vt 0.813433 0.754789
vt 0.766607 0.705747
vt 0.819188 0.705747
vt 0.801923 0.852874
vt 0.766592 0.803832
vt 0.807678 0.803832
vt 0.790414 0.950958
vt 0.766577 0.901916
vt 0.796169 0.901916
vt 0.766638 0.049927
vt 0.831175 0.000000
vt 0.842206 0.049927
vt 0.207786 0.604829
vt 0.181813 0.669346
vt 0.766638 0.509579
vt 0.842206 0.509579
vt 0.277511 0.669346
vt 0.277511 0.593777
vt 0.471613 0.518208
vt 0.489711 0.534397
vt 0.207786 0.540312
vt 0.277511 0.518209
vt 0.906273 0.558621
vt 0.917774 0.509579
vt 0.181813 0.540312
vt 0.814259 0.950958
vt 0.825761 0.901916
vt 0.837263 0.852874
vt 0.848764 0.803832
vt 0.860266 0.754789
vt 0.871768 0.705747
vt 0.883269 0.656705
vt 0.894771 0.607663
vt 0.025973 0.540312
vt 0.113883 0.820501
vt 0.133166 0.884999
vt 0.113883 0.885017
vt 0.155840 0.540312
vt 0.103893 0.540312
vt 0.000000 0.540312
vt 0.824942 0.656705
vt 0.766622 0.279753
vt 0.766615 0.371683
vt 0.766609 0.463614
vt 0.766658 0.000000
vt 0.489711 0.518208
vt 0.453515 0.518208
vt 0.453515 0.534397
vt 0.906277 0.095892
vt 0.917774 0.049927
vt 0.895692 0.000000
vt 0.814299 0.463614
vt 0.825796 0.417649
vt 0.837293 0.371683
vt 0.848791 0.325718
vt 0.860288 0.279753
vt 0.871785 0.233788
vt 0.883282 0.187823
vt 0.894780 0.141857
vt 0.453515 0.615341
vt 0.453515 0.631530
vt 0.453515 0.582963
vt 0.453515 0.550586
vt 0.453515 0.647718
vt 0.589874 0.791593
vt 0.607274 0.839464
vt 0.589874 0.839161
vt 0.766623 0.607663
vt 0.615502 0.647244
vt 0.589874 0.582725
vt 0.615502 0.582727
vt 0.427542 0.647243
vt 0.452800 0.679506
vt 0.427542 0.679501
vt 0.582506 0.697970
vt 0.565106 0.698273
vt 0.766600 0.754789
vt 0.731245 0.852874
vt 0.766584 0.852874
vt 0.766569 0.950958
vt 0.207786 0.669346
vt 0.725506 0.803832
vt 0.462276 0.189061
vt 0.194463 0.281882
vt 0.396608 0.869810
vt 0.375595 0.824248
vt 0.396608 0.823867
vt 0.453515 0.852000
vt 0.477607 0.881401
vt 0.453515 0.881122
vt 0.221459 0.281882
vt 0.511951 0.189061
vt 0.684446 0.325718
vt 0.419466 0.775536
vt 0.406473 0.824093
vt 0.406473 0.774694
vt 0.395347 0.094531
vt 0.050864 0.376412
vt 0.544051 0.801408
vt 0.542130 0.788525
vt 0.560274 0.793025
vt 0.477434 0.094531
vt 0.707428 0.417648
vt 0.707393 0.901916
vt 0.748463 1.000000
vt 0.766561 1.000000
vt 0.802801 0.509579
vt 0.748507 0.509579
vt 0.766605 0.509579
vt 0.802757 1.000000
vt 0.784659 1.000000
vt 0.784703 0.509579
vt 0.329474 0.000000
vt 0.313268 0.000000
vt 0.426711 -0.000000
vt 0.410505 -0.000000
vt 0.378093 -0.000000
vt 0.345680 0.000000
vt 0.442917 -0.000000
vt 0.730409 0.509579
vt 0.730365 1.000000
vt 0.152425 0.470943
vt 0.279592 0.767181
vt 0.311872 0.727015
vt 0.311872 0.776020
vt 0.419997 0.843586
vt 0.446044 0.874396
vt 0.419997 0.870534
vt 0.087035 0.820504
vt 0.113883 0.868213
vt 0.087035 0.868234
vt 0.480297 0.851941
vt 0.453515 0.802895
vt 0.480297 0.802836
vt 0.277511 0.659300
vt 0.324776 0.708978
vt 0.277511 0.717606
vt 0.419997 0.744023
vt 0.452800 0.795832
vt 0.419997 0.790969
vt 0.487243 0.754739
vt 0.521055 0.802397
vt 0.487243 0.802419
vt 0.408398 0.774314
vt 0.375595 0.712139
vt 0.489324 0.851994
vt 0.511198 0.808979
vt 0.511198 0.857984
vt 0.275947 0.820483
vt 0.257884 0.853520
vt 0.257884 0.823161
vt 0.550717 0.850336
vt 0.525908 0.880082
vt 0.525908 0.850049
vt 0.419997 0.795856
vt 0.450952 0.843562
vt 0.419997 0.843587
vt 0.002156 0.867895
vt 0.026967 0.821711
vt 0.026967 0.869026
vt 0.338741 0.885211
vt 0.318302 0.858481
vt 0.338741 0.858245
vt 0.152948 0.861830
vt 0.133166 0.885426
vt 0.133166 0.864763
vt 0.277511 0.823725
vt 0.298579 0.871201
vt 0.277511 0.871205
vt 0.457761 0.748122
vt 0.493891 0.706670
vt 0.493891 0.754717
vt 0.277511 0.776041
vt 0.308506 0.823701
vt 0.277511 0.823721
vt 0.163236 0.861482
vt 0.133166 0.820831
vt 0.163236 0.820483
vt 0.347554 0.823509
vt 0.318302 0.858245
vt 0.318302 0.827846
vt 0.375595 0.529718
vt 0.326553 0.582290
vt 0.326553 0.523963
vt 0.277511 0.582283
vt 0.375595 0.634878
vt 0.375595 0.582298
vt 0.326553 0.640618
vt 0.589874 0.744024
vt 0.607274 0.791895
vt 0.573285 0.518208
vt 0.589874 0.582283
vt 0.498687 0.647718
vt 0.515464 0.700299
vt 0.498687 0.700299
vt 0.515464 0.752879
vt 0.498687 0.752879
vt 0.537324 0.618298
vt 0.572423 0.573029
vt 0.572423 0.622406
vt 0.349220 0.655616
vt 0.374578 0.696675
vt 0.351247 0.705194
vt 0.531616 0.568253
vt 0.572423 0.523652
vt 0.374578 0.746992
vt 0.353274 0.754771
vt 0.419466 0.824935
vt 0.406473 0.873491
vt 0.544051 0.761629
vt 0.565106 0.798495
vt 0.579493 0.839311
vt 0.552874 0.757130
vt 0.565106 0.744803
vt 0.453515 0.651839
vt 0.494389 0.695572
vt 0.453515 0.699301
vt 0.313826 0.717606
vt 0.324776 0.763043
vt 0.313826 0.762916
vt 0.584572 0.693942
vt 0.573285 0.646357
vt 0.584572 0.646373
vt 0.522149 0.835466
vt 0.511198 0.804042
vt 0.522149 0.802419
vt 0.525908 0.689343
vt 0.573173 0.635349
vt 0.573173 0.697970
vt 0.372124 0.821943
vt 0.349220 0.869556
vt 0.349220 0.821894
vt 0.235046 0.868330
vt 0.257884 0.820686
vt 0.257884 0.868533
vt 0.185458 0.870903
vt 0.163236 0.823777
vt 0.185458 0.820483
vt 0.525908 0.802735
vt 0.552875 0.848820
vt 0.525908 0.850049
vt 0.210290 0.867972
vt 0.185458 0.820483
vt 0.210290 0.820498
vt 0.210290 0.866443
vt 0.235046 0.820965
vt 0.235046 0.866926
vt 0.508743 0.861172
vt 0.487243 0.882339
vt 0.487243 0.857984
vt 0.401568 0.582725
vt 0.453515 0.518208
vt 0.453515 0.582725
vt 0.375595 0.582725
vt 0.401568 0.518208
vt 0.375595 0.647243
vt 0.401568 0.647243
vt 0.453515 0.647243
vt 0.589874 0.518208
vt 0.615502 0.518210
vt 0.324776 0.646380
vt 0.349220 0.710874
vt 0.589874 0.647249
vt 0.615131 0.647244
vt 0.452800 0.744023
vt 0.427542 0.744018
vt 0.375595 0.711760
vt 0.427542 0.711760
vt 0.047184 0.885001
vt 0.026967 0.820483
vt 0.047184 0.820484
vt 0.047184 0.820483
vt 0.067110 0.885004
vt 0.047184 0.885000
vt 0.087035 0.885000
vt 0.067110 0.820487
vt 0.087035 0.820483
vt 0.525908 0.518208
vt 0.615502 0.472653
vt 0.277511 0.820483
vt 0.615502 0.049927
vt 0.615502 0.509579
vt 0.000000 0.000000
vt 0.538139 0.697970
vt 0.186942 0.376412
vt 0.419651 0.711938
vt 0.318302 0.823509
vt 0.103893 0.798380
vt 0.589874 0.744024
vt 0.375595 0.823867
vt 0.581227 0.875353
vt 0.487243 0.802555
vt 0.371441 0.755028
vt 0.565106 0.793409
vt 0.051947 0.540312
vt 0.133166 0.820483
vt 0.589874 0.647242
vt 0.452800 0.647248
vt 0.375595 0.870191
vt 0.477607 0.852279
vt 0.525908 0.796908
vt 0.695906 0.852874
vt 0.277511 0.717606
vt 0.446044 0.847448
vt 0.113883 0.820483
vt 0.453515 0.852000
vt 0.324776 0.646357
vt 0.452800 0.748887
vt 0.521055 0.754717
vt 0.375595 0.774694
vt 0.487242 0.802419
vt 0.275947 0.850842
vt 0.550717 0.880369
vt 0.450952 0.795832
vt -0.000000 0.820483
vt 0.318302 0.885448
vt 0.152948 0.882493
vt 0.298579 0.823721
vt 0.453515 0.699301
vt 0.308506 0.776020
vt 0.133166 0.861830
vt 0.347554 0.853908
vt 0.277511 0.646357
vt 0.607274 0.744327
vt 0.589874 0.518208
vt 0.515464 0.647718
vt 0.374578 0.646357
vt 0.525908 0.518209
vt 0.419466 0.874334
vt 0.579493 0.793409
vt 0.498687 0.647718
vt 0.324776 0.717733
vt 0.573285 0.693926
vt 0.511198 0.837089
vt 0.525908 0.622406
vt 0.372124 0.869606
vt 0.235046 0.820483
vt 0.163236 0.874198
vt 0.555030 0.801408
vt 0.185458 0.867958
vt 0.210290 0.820483
vt 0.508743 0.885527
vt 0.375595 0.518208
vt 0.349220 0.646357
vt 0.375595 0.647243
vt 0.026967 0.884999
vt 0.067110 0.820487
vt 0.067110 0.885004
s 0
usemtl Material.001
f 262/1/1 4/2/1 73/3/1
f 155/4/2 74/5/2 165/6/2
f 100/7/3 75/8/3 110/9/3
f 184/10/4 10/11/4 185/12/4
f 102/13/5 156/14/5 181/15/5
f 101/16/6 184/17/6 209/18/6
f 185/12/7 72/19/7 193/20/7
f 75/8/8 11/21/8 76/22/8
f 1/23/9 98/24/9 97/25/9
f 156/14/10 12/26/10 157/27/10
f 251/28/6 200/29/6 270/30/6
f 230/31/11 154/32/11 212/33/11
f 212/34/6 202/35/6 230/36/6
f 114/37/6 203/38/6 210/39/6
f 252/40/5 172/41/5 268/42/5
f 233/43/5 173/44/5 248/45/5
f 213/46/5 174/47/5 228/48/5
f 115/49/5 175/50/5 182/51/5
f 254/52/3 77/53/3 261/54/3
f 234/55/3 78/56/3 242/57/3
f 214/58/3 79/59/3 222/60/3
f 116/61/3 80/62/3 124/63/3
f 109/64/1 17/65/1 81/66/1
f 123/67/1 18/68/1 82/69/1
f 83/70/12 307/71/12 241/72/12
f 241/73/1 20/74/1 84/75/1
f 244/76/1 70/77/1 96/78/1
f 235/79/13 308/80/13 70/81/13
f 236/82/1 68/83/1 69/84/1
f 224/85/1 67/86/1 95/87/1
f 215/88/1 66/89/1 67/86/1
f 216/90/1 65/91/1 66/89/1
f 126/92/1 64/93/1 94/94/1
f 117/95/1 63/96/1 64/93/1
f 118/97/1 62/98/1 63/96/1
f 112/99/1 61/100/1 93/101/1
f 103/102/1 60/103/1 61/100/1
f 104/104/1 59/105/1 60/103/1
f 120/106/3 92/107/3 125/108/3
f 121/109/3 58/110/3 120/106/3
f 122/111/3 57/112/3 121/109/3
f 218/113/3 91/114/3 223/115/3
f 219/116/3 55/117/3 218/113/3
f 220/118/3 54/119/3 219/116/3
f 238/120/3 90/121/3 243/122/3
f 239/123/3 52/124/3 238/120/3
f 240/125/3 51/126/3 239/123/3
f 255/127/3 89/128/3 264/129/3
f 256/130/3 49/131/3 255/127/3
f 256/132/14 288/133/14 48/134/14
f 31/135/9 72/136/9 71/137/9
f 30/138/9 43/139/9 31/135/9
f 29/140/9 42/141/9 30/138/9
f 87/142/8 46/143/8 88/144/8
f 40/145/8 45/146/8 46/143/8
f 39/147/8 44/148/8 45/146/8
f 194/149/7 41/150/7 98/151/7
f 191/152/7 41/150/7 190/153/7
f 42/154/15 320/155/15 43/156/15
f 106/157/3 87/142/3 111/158/3
f 107/159/3 40/145/3 106/157/3
f 108/160/3 39/147/3 107/159/3
f 162/161/2 86/162/2 166/163/2
f 163/164/2 37/165/2 162/161/2
f 164/166/2 36/167/2 163/164/2
f 263/168/1 34/169/1 85/170/1
f 258/171/1 33/172/1 34/169/1
f 259/173/1 32/174/1 33/172/1
f 71/137/9 10/175/9 2/176/9
f 237/177/1 84/75/1 68/83/1
f 217/178/1 83/179/1 65/91/1
f 119/180/1 82/69/1 62/98/1
f 105/181/1 81/66/1 59/105/1
f 124/63/3 56/182/3 122/111/3
f 222/60/3 53/183/3 220/118/3
f 240/184/16 280/185/16 50/186/16
f 261/54/3 47/187/3 257/188/3
f 38/189/8 76/22/8 44/148/8
f 191/190/17 319/191/17 42/192/17
f 110/9/3 38/189/3 108/160/3
f 165/6/2 35/193/2 164/166/2
f 260/194/1 73/3/1 32/174/1
f 253/195/1 85/170/1 3/196/1
f 166/163/2 7/197/2 169/198/2
f 111/158/3 5/199/3 102/200/3
f 194/149/7 9/201/7 199/202/7
f 5/199/8 88/144/8 12/203/8
f 264/129/3 24/204/3 252/205/3
f 243/122/3 23/206/3 233/207/3
f 223/115/3 22/208/3 213/209/3
f 125/108/3 21/210/3 115/211/3
f 99/212/1 93/101/1 16/213/1
f 113/214/1 94/94/1 15/215/1
f 211/216/1 95/87/1 14/217/1
f 231/218/1 96/78/1 13/219/1
f 97/25/9 41/220/9 29/140/9
f 1/23/1 112/99/1 99/212/1
f 92/107/3 102/200/3 21/210/3
f 108/221/18 274/222/18 110/223/18
f 31/135/1 109/64/1 105/181/1
f 56/182/3 107/159/3 57/112/3
f 57/112/3 106/157/3 58/110/3
f 58/110/3 111/158/3 92/107/3
f 30/138/1 105/181/1 104/104/1
f 29/140/1 104/104/1 103/102/1
f 97/25/1 103/102/1 112/99/1
f 71/137/1 101/224/1 109/64/1
f 17/225/6 209/18/6 203/38/6
f 21/226/5 181/15/5 175/50/5
f 28/227/3 110/9/3 80/62/3
f 16/213/1 126/92/1 113/214/1
f 91/114/3 115/211/3 22/208/3
f 79/59/3 122/111/3 53/183/3
f 59/105/1 123/67/1 119/180/1
f 121/228/14 276/229/14 277/230/14
f 54/119/3 120/106/3 55/117/3
f 55/117/3 125/108/3 91/114/3
f 59/231/19 312/232/19 60/233/19
f 61/100/1 118/97/1 117/95/1
f 93/101/1 117/95/1 126/92/1
f 81/66/1 114/234/1 123/67/1
f 27/235/3 124/63/3 79/59/3
f 22/236/5 182/51/5 174/47/5
f 18/237/6 210/39/6 202/35/6
f 136/238/20 293/239/20 203/240/20
f 188/241/5 153/242/5 196/243/5
f 189/244/5 152/245/5 195/246/5
f 161/247/6 151/248/6 167/249/6
f 180/250/7 131/251/7 157/252/7
f 208/253/2 127/254/2 183/255/2
f 207/256/2 146/257/2 206/258/2
f 179/259/7 143/260/7 178/261/7
f 206/258/2 145/262/2 205/263/2
f 205/263/2 144/264/2 204/265/2
f 204/265/2 149/266/2 208/253/2
f 178/261/7 142/267/7 177/268/7
f 177/268/7 141/269/7 176/270/7
f 176/270/7 150/271/7 180/250/7
f 196/243/5 140/272/5 189/244/5
f 229/273/5 139/274/5 188/241/5
f 249/275/5 138/276/5 187/277/5
f 269/278/5 137/279/5 186/280/5
f 160/281/21 299/282/21 168/283/21
f 227/284/6 135/285/6 160/286/6
f 247/287/6 134/288/6 159/289/6
f 267/290/6 133/291/6 158/292/6
f 129/293/10 199/294/10 198/295/10
f 171/296/7 147/297/7 179/259/7
f 167/249/6 130/298/6 170/299/6
f 195/246/5 129/293/5 198/295/5
f 130/300/4 171/296/4 170/301/4
f 197/302/2 148/303/2 207/256/2
f 170/301/4 11/304/4 6/305/4
f 100/306/6 170/299/6 6/307/6
f 11/304/7 179/259/7 76/308/7
f 254/309/6 158/292/6 25/310/6
f 234/311/6 159/289/6 26/312/6
f 214/313/6 160/286/6 27/314/6
f 116/315/6 161/247/6 28/316/6
f 88/317/7 176/270/7 180/250/7
f 46/318/17 329/319/17 176/320/17
f 44/321/7 177/268/7 45/322/7
f 76/308/7 178/261/7 44/321/7
f 88/317/7 157/252/7 12/323/7
f 28/316/6 167/249/6 100/306/6
f 27/314/6 168/324/6 116/315/6
f 174/47/5 153/242/5 139/274/5
f 175/50/5 152/245/5 140/272/5
f 149/266/2 169/198/2 127/254/2
f 148/303/2 164/166/2 146/257/2
f 146/257/2 163/164/2 145/262/2
f 145/262/2 162/161/2 144/264/2
f 144/264/2 166/163/2 149/266/2
f 182/51/5 140/272/5 153/242/5
f 228/48/5 139/274/5 225/325/5
f 248/45/5 138/276/5 245/326/5
f 268/42/5 137/279/5 265/327/5
f 129/293/10 157/27/10 131/328/10
f 181/15/5 129/293/5 152/245/5
f 128/329/2 165/6/2 148/303/2
f 4/330/2 207/256/2 73/331/2
f 99/332/5 198/295/5 1/333/5
f 198/295/10 9/334/10 1/333/10
f 253/335/5 186/280/5 13/336/5
f 231/337/5 187/277/5 14/338/5
f 211/339/5 188/241/5 15/340/5
f 113/341/5 189/244/5 16/342/5
f 34/343/2 208/253/2 85/344/2
f 33/345/2 204/265/2 34/343/2
f 32/346/2 205/263/2 33/345/2
f 73/331/2 206/258/2 32/346/2
f 85/344/2 183/255/2 3/347/2
f 16/342/5 195/246/5 99/332/5
f 15/340/5 196/243/5 113/341/5
f 210/348/22 291/349/22 202/350/22
f 203/38/6 151/248/6 136/351/6
f 150/271/7 199/202/7 131/251/7
f 72/352/5 324/353/5 193/354/5
f 147/355/23 326/356/23 143/357/23
f 142/267/7 190/153/7 141/269/7
f 141/269/7 194/149/7 150/271/7
f 161/358/21 299/282/21 298/359/21
f 230/36/6 135/285/6 226/360/6
f 250/361/6 134/288/6 246/362/6
f 270/30/6 133/291/6 266/363/6
f 132/364/7 193/20/7 147/297/7
f 209/18/6 130/298/6 151/248/6
f 130/300/4 185/12/4 132/364/4
f 201/365/6 226/360/6 134/288/6
f 14/338/5 229/273/5 211/339/5
f 173/44/5 225/325/5 138/276/5
f 26/312/6 227/284/6 214/313/6
f 159/289/6 226/360/6 227/284/6
f 187/277/5 225/325/5 229/273/5
f 15/215/1 224/85/1 211/216/1
f 90/121/3 213/209/3 23/206/3
f 78/56/3 220/118/3 50/366/3
f 62/98/1 221/367/1 217/178/1
f 50/366/3 219/116/3 51/126/3
f 51/126/3 218/113/3 52/124/3
f 90/368/24 286/369/24 223/370/24
f 63/96/1 217/178/1 216/90/1
f 64/93/1 216/90/1 215/88/1
f 64/371/19 316/372/19 94/373/19
f 82/69/1 212/374/1 221/367/1
f 26/375/3 222/60/3 78/56/3
f 23/376/5 228/48/5 173/44/5
f 230/377/25 303/378/25 305/379/25
f 200/29/6 246/362/6 133/291/6
f 13/336/5 249/275/5 231/337/5
f 172/41/5 245/326/5 137/279/5
f 25/310/6 247/287/6 234/311/6
f 158/292/6 246/362/6 247/287/6
f 186/280/5 245/326/5 249/275/5
f 14/217/1 244/76/1 231/218/1
f 89/128/3 233/207/3 24/204/3
f 77/53/3 240/125/3 47/187/3
f 65/91/1 241/73/1 237/177/1
f 47/187/3 239/123/3 48/380/3
f 48/380/3 238/120/3 49/131/3
f 49/131/3 243/122/3 89/128/3
f 66/89/1 237/177/1 236/82/1
f 67/86/1 236/82/1 235/381/1
f 95/87/1 235/381/1 244/76/1
f 241/382/26 306/383/26 232/384/26
f 25/385/3 242/57/3 77/53/3
f 24/386/5 248/45/5 172/41/5
f 20/387/6 250/361/6 200/29/6
f 197/388/6 266/363/6 128/389/6
f 3/390/5 269/278/5 253/335/5
f 169/391/5 265/327/5 127/392/5
f 8/393/6 267/290/6 254/309/6
f 155/394/6 266/363/6 267/290/6
f 183/395/5 265/327/5 269/278/5
f 86/396/3 252/205/3 7/397/3
f 13/219/1 263/168/1 253/195/1
f 68/83/1 262/1/1 260/194/1
f 74/398/3 257/188/3 35/399/3
f 69/84/1 260/194/1 259/173/1
f 70/77/1 259/173/1 258/171/1
f 96/78/1 258/171/1 263/168/1
f 35/399/3 256/130/3 36/400/3
f 36/400/3 255/127/3 37/401/3
f 37/401/3 264/129/3 86/396/3
f 8/402/3 261/54/3 74/398/3
f 7/403/5 268/42/5 169/391/5
f 4/404/6 270/30/6 197/388/6
f 84/75/1 251/405/1 262/1/1
f 271/406/3 273/407/3 272/408/3
f 80/409/27 272/410/27 56/411/27
f 110/412/28 271/413/28 80/414/28
f 56/415/16 273/416/16 108/417/16
f 275/418/3 277/419/3 276/420/3
f 53/421/27 276/422/27 54/423/27
f 122/424/29 275/425/29 53/426/29
f 121/427/18 278/428/18 122/79/18
f 282/429/3 280/430/3 281/431/3
f 242/432/27 281/433/27 240/434/27
f 50/435/18 279/436/18 78/437/18
f 78/438/28 282/439/28 242/440/28
f 283/441/3 286/442/3 284/443/3
f 223/444/18 285/445/18 218/446/18
f 52/447/27 284/448/27 90/449/27
f 218/450/30 283/451/30 52/452/30
f 290/453/3 288/454/3 289/455/3
f 47/456/29 290/457/29 257/458/29
f 48/459/18 287/460/18 47/461/18
f 257/462/27 289/463/27 256/464/27
f 297/465/6 296/466/6 299/467/6
f 299/467/6 294/468/6 298/305/6
f 291/469/6 296/466/6 292/470/6
f 295/471/6 294/468/6 296/466/6
f 203/472/22 295/473/22 210/348/22
f 161/474/20 294/475/20 136/238/20
f 202/476/31 292/477/31 135/478/31
f 135/478/31 297/479/31 160/480/31
f 306/481/6 303/482/6 304/483/6
f 302/484/1 300/485/1 301/486/1
f 300/487/6 305/488/6 303/482/6
f 301/486/1 306/489/1 307/490/1
f 201/491/25 304/492/25 303/378/25
f 250/493/32 306/383/32 304/33/32
f 221/494/12 301/495/12 83/70/12
f 221/496/33 154/32/33 302/497/33
f 309/498/1 19/499/1 308/500/1
f 236/501/19 309/502/19 235/503/19
f 69/504/34 310/505/34 236/506/34
f 70/507/35 19/508/35 69/509/35
f 312/510/1 314/511/1 313/512/1
f 59/513/36 314/514/36 311/515/36
f 118/516/37 312/517/37 313/518/37
f 118/519/35 314/520/35 119/521/35
f 316/522/1 317/523/1 318/524/1
f 215/525/38 315/526/38 64/527/38
f 224/528/39 316/529/39 318/530/39
f 224/531/35 317/532/35 215/533/35
f 322/534/7 319/535/7 321/536/7
f 324/537/7 320/538/7 322/534/7
f 325/539/7 322/534/7 326/540/7
f 326/540/7 321/536/7 327/541/7
f 193/354/5 325/542/5 147/543/5
f 142/544/17 321/545/17 191/190/17
f 43/156/15 323/546/15 72/547/15
f 143/357/23 327/548/23 142/549/23
f 192/550/7 329/355/7 328/551/7
f 177/552/5 192/553/5 45/554/5
f 45/555/23 328/556/23 46/557/23
f 176/558/15 330/559/15 177/560/15
f 262/1/1 251/405/1 4/2/1
f 155/4/2 8/561/2 74/5/2
f 100/7/3 6/562/3 75/8/3
f 184/10/4 2/563/4 10/11/4
f 102/13/5 5/564/5 156/14/5
f 101/16/6 2/565/6 184/17/6
f 185/12/7 10/11/7 72/19/7
f 75/8/8 6/562/8 11/21/8
f 1/23/9 9/566/9 98/24/9
f 156/14/10 5/564/10 12/26/10
f 251/28/6 20/387/6 200/29/6
f 230/31/11 305/567/11 154/32/11
f 212/34/6 18/237/6 202/35/6
f 114/37/6 17/225/6 203/38/6
f 252/40/5 24/386/5 172/41/5
f 233/43/5 23/376/5 173/44/5
f 213/46/5 22/236/5 174/47/5
f 115/49/5 21/226/5 175/50/5
f 254/52/3 25/385/3 77/53/3
f 234/55/3 26/375/3 78/56/3
f 214/58/3 27/235/3 79/59/3
f 116/61/3 28/227/3 80/62/3
f 109/64/1 101/224/1 17/65/1
f 123/67/1 114/234/1 18/68/1
f 83/70/12 301/495/12 307/71/12
f 241/73/1 232/568/1 20/74/1
f 244/76/1 235/381/1 70/77/1
f 235/79/13 309/569/13 308/80/13
f 236/82/1 237/177/1 68/83/1
f 224/85/1 215/88/1 67/86/1
f 215/88/1 216/90/1 66/89/1
f 216/90/1 217/178/1 65/91/1
f 126/92/1 117/95/1 64/93/1
f 117/95/1 118/97/1 63/96/1
f 118/97/1 119/180/1 62/98/1
f 112/99/1 103/102/1 61/100/1
f 103/102/1 104/104/1 60/103/1
f 104/104/1 105/181/1 59/105/1
f 120/106/3 58/110/3 92/107/3
f 121/109/3 57/112/3 58/110/3
f 122/111/3 56/182/3 57/112/3
f 218/113/3 55/117/3 91/114/3
f 219/116/3 54/119/3 55/117/3
f 220/118/3 53/183/3 54/119/3
f 238/120/3 52/124/3 90/121/3
f 239/123/3 51/126/3 52/124/3
f 240/125/3 50/366/3 51/126/3
f 255/127/3 49/131/3 89/128/3
f 256/130/3 48/380/3 49/131/3
f 256/132/14 289/570/14 288/133/14
f 31/135/9 43/139/9 72/136/9
f 30/138/9 42/141/9 43/139/9
f 29/140/9 41/220/9 42/141/9
f 87/142/8 40/145/8 46/143/8
f 40/145/8 39/147/8 45/146/8
f 39/147/8 38/189/8 44/148/8
f 194/149/7 190/153/7 41/150/7
f 191/152/7 42/571/7 41/150/7
f 42/154/15 319/572/15 320/155/15
f 106/157/3 40/145/3 87/142/3
f 107/159/3 39/147/3 40/145/3
f 108/160/3 38/189/3 39/147/3
f 162/161/2 37/165/2 86/162/2
f 163/164/2 36/167/2 37/165/2
f 164/166/2 35/193/2 36/167/2
f 263/168/1 258/171/1 34/169/1
f 258/171/1 259/173/1 33/172/1
f 259/173/1 260/194/1 32/174/1
f 71/137/9 72/136/9 10/175/9
f 237/177/1 241/73/1 84/75/1
f 217/178/1 221/367/1 83/179/1
f 119/180/1 123/67/1 82/69/1
f 105/181/1 109/64/1 81/66/1
f 124/63/3 80/62/3 56/182/3
f 222/60/3 79/59/3 53/183/3
f 240/184/16 281/573/16 280/185/16
f 261/54/3 77/53/3 47/187/3
f 38/189/8 75/8/8 76/22/8
f 191/190/17 321/545/17 319/191/17
f 110/9/3 75/8/3 38/189/3
f 165/6/2 74/5/2 35/193/2
f 260/194/1 262/1/1 73/3/1
f 253/195/1 263/168/1 85/170/1
f 166/163/2 86/162/2 7/197/2
f 111/158/3 87/142/3 5/199/3
f 194/149/7 98/151/7 9/201/7
f 5/199/8 87/142/8 88/144/8
f 264/129/3 89/128/3 24/204/3
f 243/122/3 90/121/3 23/206/3
f 223/115/3 91/114/3 22/208/3
f 125/108/3 92/107/3 21/210/3
f 99/212/1 112/99/1 93/101/1
f 113/214/1 126/92/1 94/94/1
f 211/216/1 224/85/1 95/87/1
f 231/218/1 244/76/1 96/78/1
f 97/25/9 98/24/9 41/220/9
f 1/23/1 97/25/1 112/99/1
f 92/107/3 111/158/3 102/200/3
f 108/221/18 273/574/18 274/222/18
f 31/135/1 71/137/1 109/64/1
f 56/182/3 108/160/3 107/159/3
f 57/112/3 107/159/3 106/157/3
f 58/110/3 106/157/3 111/158/3
f 30/138/1 31/135/1 105/181/1
f 29/140/1 30/138/1 104/104/1
f 97/25/1 29/140/1 103/102/1
f 71/137/1 2/176/1 101/224/1
f 17/225/6 101/16/6 209/18/6
f 21/226/5 102/13/5 181/15/5
f 28/227/3 100/7/3 110/9/3
f 16/213/1 93/101/1 126/92/1
f 91/114/3 125/108/3 115/211/3
f 79/59/3 124/63/3 122/111/3
f 59/105/1 81/66/1 123/67/1
f 121/228/14 54/575/14 276/229/14
f 54/119/3 121/109/3 120/106/3
f 55/117/3 120/106/3 125/108/3
f 59/231/19 311/576/19 312/232/19
f 61/100/1 60/103/1 118/97/1
f 93/101/1 61/100/1 117/95/1
f 81/66/1 17/65/1 114/234/1
f 27/235/3 116/61/3 124/63/3
f 22/236/5 115/49/5 182/51/5
f 18/237/6 114/37/6 210/39/6
f 136/238/20 294/475/20 293/239/20
f 188/241/5 139/274/5 153/242/5
f 189/244/5 140/272/5 152/245/5
f 161/247/6 136/351/6 151/248/6
f 180/250/7 150/271/7 131/251/7
f 208/253/2 149/266/2 127/254/2
f 207/256/2 148/303/2 146/257/2
f 179/259/7 147/297/7 143/260/7
f 206/258/2 146/257/2 145/262/2
f 205/263/2 145/262/2 144/264/2
f 204/265/2 144/264/2 149/266/2
f 178/261/7 143/260/7 142/267/7
f 177/268/7 142/267/7 141/269/7
f 176/270/7 141/269/7 150/271/7
f 196/243/5 153/242/5 140/272/5
f 229/273/5 225/325/5 139/274/5
f 249/275/5 245/326/5 138/276/5
f 269/278/5 265/327/5 137/279/5
f 160/281/21 297/577/21 299/282/21
f 227/284/6 226/360/6 135/285/6
f 247/287/6 246/362/6 134/288/6
f 267/290/6 266/363/6 133/291/6
f 129/293/10 131/328/10 199/294/10
f 171/296/7 132/364/7 147/297/7
f 167/249/6 151/248/6 130/298/6
f 195/246/5 152/245/5 129/293/5
f 130/300/4 132/364/4 171/296/4
f 197/302/2 128/329/2 148/303/2
f 170/301/4 171/296/4 11/304/4
f 100/306/6 167/249/6 170/299/6
f 11/304/7 171/296/7 179/259/7
f 254/309/6 267/290/6 158/292/6
f 234/311/6 247/287/6 159/289/6
f 214/313/6 227/284/6 160/286/6
f 116/315/6 168/324/6 161/247/6
f 88/317/7 46/578/7 176/270/7
f 46/318/17 328/579/17 329/319/17
f 44/321/7 178/261/7 177/268/7
f 76/308/7 179/259/7 178/261/7
f 88/317/7 180/250/7 157/252/7
f 28/316/6 161/247/6 167/249/6
f 27/314/6 160/286/6 168/324/6
f 174/47/5 182/51/5 153/242/5
f 175/50/5 181/15/5 152/245/5
f 149/266/2 166/163/2 169/198/2
f 148/303/2 165/6/2 164/166/2
f 146/257/2 164/166/2 163/164/2
f 145/262/2 163/164/2 162/161/2
f 144/264/2 162/161/2 166/163/2
f 182/51/5 175/50/5 140/272/5
f 228/48/5 174/47/5 139/274/5
f 248/45/5 173/44/5 138/276/5
f 268/42/5 172/41/5 137/279/5
f 129/293/10 156/14/10 157/27/10
f 181/15/5 156/14/5 129/293/5
f 128/329/2 155/4/2 165/6/2
f 4/330/2 197/302/2 207/256/2
f 99/332/5 195/246/5 198/295/5
f 198/295/10 199/294/10 9/334/10
f 253/335/5 269/278/5 186/280/5
f 231/337/5 249/275/5 187/277/5
f 211/339/5 229/273/5 188/241/5
f 113/341/5 196/243/5 189/244/5
f 34/343/2 204/265/2 208/253/2
f 33/345/2 205/263/2 204/265/2
f 32/346/2 206/258/2 205/263/2
f 73/331/2 207/256/2 206/258/2
f 85/344/2 208/253/2 183/255/2
f 16/342/5 189/244/5 195/246/5
f 15/340/5 188/241/5 196/243/5
f 210/348/22 295/473/22 291/349/22
f 203/38/6 209/18/6 151/248/6
f 150/271/7 194/149/7 199/202/7
f 72/352/5 323/580/5 324/353/5
f 147/355/23 325/581/23 326/356/23
f 142/267/7 191/152/7 190/153/7
f 141/269/7 190/153/7 194/149/7
f 161/358/21 168/283/21 299/282/21
f 230/36/6 202/35/6 135/285/6
f 250/361/6 201/365/6 134/288/6
f 270/30/6 200/29/6 133/291/6
f 132/364/7 185/12/7 193/20/7
f 209/18/6 184/17/6 130/298/6
f 130/300/4 184/10/4 185/12/4
f 201/365/6 230/36/6 226/360/6
f 14/338/5 187/277/5 229/273/5
f 173/44/5 228/48/5 225/325/5
f 26/312/6 159/289/6 227/284/6
f 159/289/6 134/288/6 226/360/6
f 187/277/5 138/276/5 225/325/5
f 15/215/1 94/94/1 224/85/1
f 90/121/3 223/115/3 213/209/3
f 78/56/3 222/60/3 220/118/3
f 62/98/1 82/69/1 221/367/1
f 50/366/3 220/118/3 219/116/3
f 51/126/3 219/116/3 218/113/3
f 90/368/24 284/582/24 286/369/24
f 63/96/1 62/98/1 217/178/1
f 64/93/1 63/96/1 216/90/1
f 64/371/19 315/583/19 316/372/19
f 82/69/1 18/68/1 212/374/1
f 26/375/3 214/58/3 222/60/3
f 23/376/5 213/46/5 228/48/5
f 230/377/25 201/491/25 303/378/25
f 200/29/6 250/361/6 246/362/6
f 13/336/5 186/280/5 249/275/5
f 172/41/5 248/45/5 245/326/5
f 25/310/6 158/292/6 247/287/6
f 158/292/6 133/291/6 246/362/6
f 186/280/5 137/279/5 245/326/5
f 14/217/1 95/87/1 244/76/1
f 89/128/3 243/122/3 233/207/3
f 77/53/3 242/57/3 240/125/3
f 65/91/1 83/179/1 241/73/1
f 47/187/3 240/125/3 239/123/3
f 48/380/3 239/123/3 238/120/3
f 49/131/3 238/120/3 243/122/3
f 66/89/1 65/91/1 237/177/1
f 67/86/1 66/89/1 236/82/1
f 95/87/1 67/86/1 235/381/1
f 241/382/26 307/584/26 306/383/26
f 25/385/3 234/55/3 242/57/3
f 24/386/5 233/43/5 248/45/5
f 20/387/6 232/585/6 250/361/6
f 197/388/6 270/30/6 266/363/6
f 3/390/5 183/395/5 269/278/5
f 169/391/5 268/42/5 265/327/5
f 8/393/6 155/394/6 267/290/6
f 155/394/6 128/389/6 266/363/6
f 183/395/5 127/392/5 265/327/5
f 86/396/3 264/129/3 252/205/3
f 13/219/1 96/78/1 263/168/1
f 68/83/1 84/75/1 262/1/1
f 74/398/3 261/54/3 257/188/3
f 69/84/1 68/83/1 260/194/1
f 70/77/1 69/84/1 259/173/1
f 96/78/1 70/77/1 258/171/1
f 35/399/3 257/188/3 256/130/3
f 36/400/3 256/130/3 255/127/3
f 37/401/3 255/127/3 264/129/3
f 8/402/3 254/52/3 261/54/3
f 7/403/5 252/40/5 268/42/5
f 4/404/6 251/28/6 270/30/6
f 84/75/1 20/74/1 251/405/1
f 271/406/3 274/586/3 273/407/3
f 80/409/27 271/587/27 272/410/27
f 110/412/28 274/588/28 271/413/28
f 56/415/16 272/589/16 273/416/16
f 275/418/3 278/590/3 277/419/3
f 53/421/27 275/591/27 276/422/27
f 122/424/29 278/592/29 275/425/29
f 121/427/18 277/593/18 278/428/18
f 282/429/3 279/594/3 280/430/3
f 242/432/27 282/595/27 281/433/27
f 50/435/18 280/596/18 279/436/18
f 78/438/28 279/597/28 282/439/28
f 283/441/3 285/598/3 286/442/3
f 223/444/18 286/599/18 285/445/18
f 52/447/27 283/600/27 284/448/27
f 218/450/30 285/601/30 283/451/30
f 290/453/3 287/602/3 288/454/3
f 47/456/29 287/603/29 290/457/29
f 48/459/18 288/604/18 287/460/18
f 257/462/27 290/605/27 289/463/27
f 297/465/6 292/470/6 296/466/6
f 299/467/6 296/466/6 294/468/6
f 291/469/6 295/471/6 296/466/6
f 295/471/6 293/606/6 294/468/6
f 203/472/22 293/607/22 295/473/22
f 161/474/20 298/608/20 294/475/20
f 202/476/31 291/609/31 292/477/31
f 135/478/31 292/477/31 297/479/31
f 306/481/6 300/487/6 303/482/6
f 302/484/1 154/610/1 300/485/1
f 300/487/6 154/611/6 305/488/6
f 301/486/1 300/485/1 306/489/1
f 201/491/25 250/612/25 304/492/25
f 250/493/32 232/384/32 306/383/32
f 221/494/12 302/613/12 301/495/12
f 221/496/33 212/33/33 154/32/33
f 309/498/1 310/614/1 19/499/1
f 236/501/19 310/615/19 309/502/19
f 69/504/34 19/616/34 310/505/34
f 70/507/35 308/617/35 19/508/35
f 312/510/1 311/618/1 314/511/1
f 59/513/36 119/619/36 314/514/36
f 118/516/37 60/620/37 312/517/37
f 118/519/35 313/621/35 314/520/35
f 316/522/1 315/622/1 317/523/1
f 215/525/38 317/623/38 315/526/38
f 224/528/39 94/624/39 316/529/39
f 224/531/35 318/625/35 317/532/35
f 322/534/7 320/538/7 319/535/7
f 324/537/7 323/626/7 320/538/7
f 325/539/7 324/537/7 322/534/7
f 326/540/7 322/534/7 321/536/7
f 193/354/5 324/353/5 325/542/5
f 142/544/17 327/627/17 321/545/17
f 43/156/15 320/155/15 323/546/15
f 143/357/23 326/356/23 327/548/23
f 192/550/7 330/628/7 329/355/7
f 177/552/5 330/629/5 192/553/5
f 45/555/23 192/630/23 328/556/23
f 176/558/15 329/631/15 330/559/15
