# Blender 4.1.1
# www.blender.org
mtllib ../assets/floor.mtl
o Piso
v -1.920138 0.266409 1.466532
v -1.920138 0.947542 1.466532
v -1.920138 0.266409 -1.496518
v -1.920138 0.947542 -1.496518
v 1.042911 0.266409 1.466532
v 1.042911 0.947542 1.466532
v 1.042911 0.266409 -1.496518
v 1.042911 0.947542 -1.496518
v 0.549069 0.266409 -1.496518
v 0.055228 0.266409 -1.496518
v -0.438614 0.266409 -1.496518
v -0.932455 0.266409 -1.496518
v -1.426297 0.266409 -1.496518
v -1.426297 0.947542 -1.496518
v -0.932455 0.947542 -1.496518
v -0.438614 0.947542 -1.496518
v 0.055228 0.947542 -1.496518
v 0.549070 0.947542 -1.496518
v -1.426297 0.266409 1.466532
v -0.932455 0.266409 1.466532
v -0.438614 0.266409 1.466532
v 0.055228 0.266409 1.466532
v 0.549070 0.266409 1.466532
v 0.549069 0.947542 1.466532
v 0.055228 0.947542 1.466532
v -0.438614 0.947542 1.466532
v -0.932455 0.947542 1.466532
v -1.426297 0.947542 1.466532
v 0.524909 0.266409 -1.496518
v 0.524910 0.947542 -1.496518
v 0.524910 0.266409 1.466532
v 0.524909 0.947542 1.466532
v 0.028659 0.266409 -1.496518
v 0.028659 0.947542 -1.496518
v 0.028659 0.266409 1.466532
v 0.028659 0.947542 1.466532
v -0.474240 0.266409 -1.496518
v -0.474240 0.947542 -1.496518
v -0.474240 0.266409 1.466532
v -0.474240 0.947542 1.466532
v -0.974495 0.266409 -1.496518
v -0.974495 0.947542 -1.496518
v -0.974495 0.266409 1.466532
v -0.974495 0.947542 1.466532
v -1.455957 0.266409 -1.496518
v -1.455957 0.947542 1.466532
v -1.455957 0.947542 -1.496518
v -1.455957 0.266409 1.466532
v -1.455957 0.921147 -1.496518
v -1.426297 0.921147 -1.496518
v -0.974495 0.921147 -1.496518
v -0.932455 0.921147 -1.496518
v -0.474240 0.921147 -1.496518
v -0.438614 0.921147 -1.496518
v 0.028659 0.921147 -1.496518
v 0.055228 0.921147 -1.496518
v 0.524910 0.921147 -1.496518
v 0.549070 0.921147 -1.496518
v 0.549069 0.921147 1.466532
v 0.055228 0.921147 1.466532
v -0.438614 0.921147 1.466532
v -0.932455 0.921147 1.466532
v -1.426297 0.921147 1.466532
v 0.524909 0.921147 1.466532
v 0.028659 0.921147 1.466532
v -0.474240 0.921147 1.466532
v -0.974495 0.921147 1.466532
v -1.455957 0.921147 1.466532
vn -1.0000 -0.0000 -0.0000
vn -0.0000 -0.0000 -1.0000
vn 1.0000 -0.0000 -0.0000
vn -0.0000 -0.0000 1.0000
vn -0.0000 -1.0000 -0.0000
vn -0.0000 1.0000 -0.0000
vt 0.094156 0.316279
vt 0.886158 0.515807
vt 0.094156 0.515807
vt 0.545823 0.763271
vt 0.375432 0.908490
vt 0.375432 0.763271
vt 0.052451 0.391268
vt 0.923762 0.609941
vt 0.052451 0.609941
vt 0.218209 0.767459
vt 0.023870 0.903955
vt 0.023870 0.767459
vt 0.064127 0.050781
vt 0.935438 0.196000
vt 0.064127 0.196000
vt 0.049773 0.042294
vt 0.921084 0.178791
vt 0.049773 0.178791
vt 0.049773 0.768387
vt 0.921084 0.913605
vt 0.049773 0.913605
vt 0.049773 0.623168
vt 0.921084 0.761282
vt 0.049773 0.761282
vt 0.049773 0.477950
vt 0.921084 0.615355
vt 0.049773 0.615355
vt 0.049773 0.332731
vt 0.921084 0.467473
vt 0.049773 0.467474
vt 0.049773 0.187513
vt 0.921084 0.320369
vt 0.049773 0.320369
vt 0.064127 0.776874
vt 0.935438 0.785596
vt 0.064127 0.785596
vt 0.064127 0.631655
vt 0.935438 0.644017
vt 0.064127 0.644017
vt 0.064127 0.486437
vt 0.935438 0.496913
vt 0.064127 0.496913
vt 0.064127 0.341218
vt 0.935438 0.349031
vt 0.064127 0.349031
vt 0.935438 0.203104
vt 0.064127 0.203104
vt 0.218209 0.032645
vt 0.023870 0.177863
vt 0.023870 0.032645
vt 0.218209 0.184968
vt 0.023870 0.323082
vt 0.023870 0.184968
vt 0.218209 0.330894
vt 0.023870 0.468300
vt 0.023870 0.330894
vt 0.218209 0.478776
vt 0.023870 0.613518
vt 0.023870 0.478776
vt 0.218209 0.625881
vt 0.023870 0.758737
vt 0.023870 0.625881
vt 0.545823 0.327616
vt 0.375432 0.315254
vt 0.545823 0.472835
vt 0.375432 0.462358
vt 0.545823 0.618053
vt 0.375432 0.610240
vt 0.545823 0.756167
vt 0.375432 0.756167
vt 0.375432 0.618053
vt 0.935438 0.341218
vt 0.495905 0.913605
vt 0.495905 0.042294
vt 0.375432 0.472835
vt 0.935438 0.486437
vt 1.233905 1.371311
vt 1.233905 0.500000
vt 0.375432 0.327616
vt 0.935438 0.631655
vt 1.087978 1.371311
vt 1.087978 0.500000
vt 0.545823 0.182398
vt 0.375432 0.182398
vt 0.935438 0.776874
vt 0.921084 0.187513
vt 0.545823 0.037179
vt 0.375432 0.173676
vt 0.375432 0.037179
vt 0.935438 0.922092
vt 0.064128 0.922092
vt 0.935655 0.347677
vt 0.935655 0.354781
vt 1.080874 1.371311
vt 1.080874 0.500000
vt 0.348023 0.042294
vt 0.340210 0.913605
vt 0.340210 0.042294
vt 0.921084 0.477950
vt 0.921084 0.332731
vt 1.670470 1.371311
vt 1.670470 0.500000
vt 1.528892 1.371311
vt 1.528892 0.500000
vt 0.921084 0.768387
vt 0.921084 0.623168
vt 0.545823 0.173676
vt 0.886158 0.316279
vt 0.545823 0.908490
vt 0.923762 0.391267
vt 0.218209 0.903955
vt 0.935438 0.050781
vt 0.921084 0.042294
vt 0.218209 0.177863
vt 0.218209 0.323082
vt 0.218209 0.468300
vt 0.218209 0.613518
vt 0.218209 0.758737
vt 0.545823 0.315254
vt 0.545823 0.462358
vt 0.545823 0.610240
vt 0.348023 0.913605
s 0
usemtl Material.002
f 2/1/1 3/2/1 1/3/1
f 18/4/2 7/5/2 9/6/2
f 8/7/3 5/8/3 7/9/3
f 46/10/4 1/11/4 48/12/4
f 7/13/5 23/14/5 9/15/5
f 4/16/6 46/17/6 47/18/6
f 18/19/6 6/20/6 8/21/6
f 17/22/6 32/23/6 30/24/6
f 16/25/6 36/26/6 34/27/6
f 15/28/6 40/29/6 38/30/6
f 14/31/6 44/32/6 42/33/6
f 13/34/5 48/35/5 45/36/5
f 12/37/5 43/38/5 41/39/5
f 11/40/5 39/41/5 37/42/5
f 10/43/5 35/44/5 33/45/5
f 9/15/5 31/46/5 29/47/5
f 6/48/4 23/49/4 5/50/4
f 32/51/4 22/52/4 31/53/4
f 36/54/4 21/55/4 35/56/4
f 40/57/4 20/58/4 39/59/4
f 44/60/4 19/61/4 43/62/4
f 52/63/4 15/63/4 41/64/4
f 54/65/4 16/65/4 37/66/4
f 56/67/4 17/67/4 33/68/4
f 64/51/2 32/51/2 23/49/2
f 30/69/2 9/6/2 29/70/2
f 17/67/2 29/70/2 10/71/2
f 65/54/2 36/54/2 22/52/2
f 29/47/5 22/72/5 10/43/5
f 40/73/3 53/74/3 38/74/3
f 16/65/2 33/68/2 11/75/2
f 66/57/2 40/57/2 21/55/2
f 33/45/5 21/76/5 11/40/5
f 36/77/3 55/78/3 34/78/3
f 15/63/2 37/66/2 12/79/2
f 67/60/2 44/60/2 20/58/2
f 37/42/5 20/80/5 12/37/5
f 32/81/3 57/82/3 30/82/3
f 14/83/2 41/64/2 13/84/2
f 68/10/6 46/10/6 48/12/6
f 41/39/5 19/85/5 13/34/5
f 14/31/1 63/86/1 28/86/1
f 4/87/2 45/88/2 3/89/2
f 45/36/5 1/90/5 3/91/5
f 30/92/4 58/93/4 18/93/4
f 57/82/6 59/94/6 58/95/6
f 55/96/6 60/97/6 56/98/6
f 53/30/6 61/99/6 54/25/6
f 51/33/6 62/100/6 52/28/6
f 49/18/6 63/86/6 50/31/6
f 46/101/3 49/102/3 47/102/3
f 44/103/3 51/104/3 42/104/3
f 18/19/1 59/105/1 24/105/1
f 17/22/1 60/106/1 25/106/1
f 16/25/1 61/99/1 26/99/1
f 15/28/1 62/100/1 27/100/1
f 49/107/4 50/83/4 14/83/4
f 2/1/1 4/108/1 3/2/1
f 18/4/2 8/109/2 7/5/2
f 8/7/3 6/110/3 5/8/3
f 46/10/4 2/111/4 1/11/4
f 7/13/5 5/112/5 23/14/5
f 4/16/6 2/113/6 46/17/6
f 18/19/6 24/105/6 6/20/6
f 17/22/6 25/106/6 32/23/6
f 16/25/6 26/99/6 36/26/6
f 15/28/6 27/100/6 40/29/6
f 14/31/6 28/86/6 44/32/6
f 13/34/5 19/85/5 48/35/5
f 12/37/5 20/80/5 43/38/5
f 11/40/5 21/76/5 39/41/5
f 10/43/5 22/72/5 35/44/5
f 9/15/5 23/14/5 31/46/5
f 6/48/4 24/114/4 23/49/4
f 32/51/4 25/115/4 22/52/4
f 36/54/4 26/116/4 21/55/4
f 40/57/4 27/117/4 20/58/4
f 44/60/4 28/118/4 19/61/4
f 41/64/2 42/119/2 51/119/2
f 41/64/2 51/119/2 52/63/2
f 15/63/2 12/79/2 41/64/2
f 37/66/2 38/120/2 53/120/2
f 37/66/2 53/120/2 54/65/2
f 16/65/2 11/75/2 37/66/2
f 33/68/4 34/121/4 55/121/4
f 33/68/2 55/121/2 56/67/2
f 17/67/2 10/71/2 33/68/2
f 23/49/4 24/114/4 59/114/4
f 23/49/4 59/114/4 64/51/4
f 32/51/4 31/53/4 23/49/4
f 30/69/2 18/4/2 9/6/2
f 17/67/2 30/69/2 29/70/2
f 22/52/4 25/115/4 60/115/4
f 22/52/4 60/115/4 65/54/4
f 36/54/4 35/56/4 22/52/4
f 29/47/5 31/46/5 22/72/5
f 40/73/3 66/73/3 53/74/3
f 16/65/2 34/121/2 33/68/2
f 21/55/4 26/116/4 61/116/4
f 21/55/4 61/116/4 66/57/4
f 40/57/4 39/59/4 21/55/4
f 33/45/5 35/44/5 21/76/5
f 36/77/3 65/77/3 55/78/3
f 15/63/2 38/120/2 37/66/2
f 20/58/2 27/117/2 62/117/2
f 20/58/4 62/117/4 67/60/4
f 44/60/4 43/62/4 20/58/4
f 37/42/5 39/41/5 20/80/5
f 32/81/3 64/81/3 57/82/3
f 14/83/2 42/119/2 41/64/2
f 19/61/2 28/118/2 63/118/2
f 19/61/4 63/118/4 68/10/4
f 48/12/4 19/61/4 68/10/4
f 41/39/5 43/38/5 19/85/5
f 14/31/1 50/31/1 63/86/1
f 4/87/2 47/107/2 45/88/2
f 45/36/5 48/35/5 1/90/5
f 30/92/4 57/92/4 58/93/4
f 57/82/6 64/81/6 59/94/6
f 55/96/6 65/122/6 60/97/6
f 53/30/6 66/29/6 61/99/6
f 51/33/6 67/32/6 62/100/6
f 49/18/6 68/17/6 63/86/6
f 46/101/3 68/101/3 49/102/3
f 44/103/3 67/103/3 51/104/3
f 18/19/1 58/19/1 59/105/1
f 17/22/1 56/22/1 60/106/1
f 16/25/1 54/25/1 61/99/1
f 15/28/1 52/28/1 62/100/1
f 14/83/2 13/84/2 45/88/2
f 45/88/2 47/107/2 49/107/2
f 14/83/2 45/88/2 49/107/2
