# Blender 4.1.1
# www.blender.org
mtllib ../assets/rat.mtl
o Rato
v -0.507531 0.951036 -0.262846
v -0.507531 1.094474 -0.262846
v -0.507531 0.951036 -0.370613
v -0.507531 1.094474 -0.370613
v -0.324080 0.951036 -0.262846
v -0.324080 1.094474 -0.262846
v -0.324080 0.951036 -0.370613
v -0.324080 1.094474 -0.370613
v -0.491390 1.063974 -0.447473
v -0.491390 0.945777 -0.447473
v -0.340221 0.945777 -0.447473
v -0.340221 1.063974 -0.447473
v -0.422510 1.015983 -0.465528
v -0.422510 0.993768 -0.465528
v -0.394097 0.993768 -0.465528
v -0.394097 1.015983 -0.465528
v -0.414056 0.965109 -0.759101
v -0.414056 0.956114 -0.759101
v -0.402551 0.956114 -0.759101
v -0.402551 0.965109 -0.759101
v -0.448827 0.979902 -0.143495
v -0.448827 1.016663 -0.143495
v -0.401811 1.016663 -0.143495
v -0.401811 0.979902 -0.143495
v -0.433716 0.991717 -0.134014
v -0.433716 1.004848 -0.134014
v -0.416922 1.004848 -0.134014
v -0.416922 0.991717 -0.134014
v -0.428716 0.994986 -0.128404
v -0.428716 1.001579 -0.128404
v -0.420283 1.001579 -0.128404
v -0.420283 0.994986 -0.128404
v -0.480008 1.054397 -0.174228
v -0.365731 1.054397 -0.174228
v -0.365731 0.965046 -0.174228
v -0.480008 0.965046 -0.174228
v -0.464417 1.035530 -0.158861
v -0.464417 0.972474 -0.158861
v -0.383771 1.035530 -0.158861
v -0.383771 0.972474 -0.158861
v -0.398324 0.984313 -0.612315
v -0.418283 0.984313 -0.612315
v -0.418283 0.968707 -0.612315
v -0.398324 0.968707 -0.612315
v -0.461602 1.035722 -0.154990
v -0.461602 1.049508 -0.154990
v -0.461602 1.035722 -0.165664
v -0.461602 1.049508 -0.165664
v -0.449710 1.035722 -0.154990
v -0.449710 1.049508 -0.154990
v -0.449710 1.035722 -0.165664
v -0.449710 1.049508 -0.165664
v -0.524177 1.038722 -0.184941
v -0.524177 1.113617 -0.184941
v -0.524177 1.038722 -0.199628
v -0.524177 1.113617 -0.199628
v -0.459571 1.038722 -0.184941
v -0.459571 1.113617 -0.184941
v -0.459571 1.038722 -0.199628
v -0.459571 1.113617 -0.199628
v -0.384140 1.038722 -0.184941
v -0.384140 1.113617 -0.184941
v -0.384140 1.038722 -0.199628
v -0.384140 1.113617 -0.199628
v -0.319534 1.038722 -0.184941
v -0.319534 1.113617 -0.184941
v -0.319534 1.038722 -0.199628
v -0.319534 1.113617 -0.199628
v -0.399816 1.035722 -0.154990
v -0.399816 1.049508 -0.154990
v -0.399816 1.035722 -0.165664
v -0.399816 1.049508 -0.165664
v -0.387924 1.035722 -0.154990
v -0.387924 1.049508 -0.154990
v -0.387924 1.035722 -0.165664
v -0.387924 1.049508 -0.165664
vn -1.0000 -0.0000 -0.0000
vn 0.9787 -0.0000 -0.2055
vn 1.0000 -0.0000 -0.0000
vn -0.0000 0.6315 0.7754
vn -0.0000 -1.0000 -0.0000
vn -0.0000 1.0000 -0.0000
vn -0.0000 -0.3521 -0.9360
vn -0.0000 -0.9977 0.0683
vn -0.0000 0.9295 -0.3688
vn -0.9787 -0.0000 -0.2055
vn -0.0000 0.9916 -0.1297
vn -0.0000 0.3521 -0.9360
vn -0.2536 -0.0000 -0.9673
vn 0.3178 -0.0000 -0.9482
vn -0.0000 -0.0000 -1.0000
vn -0.9996 -0.0000 -0.0288
vn 0.9996 -0.0000 -0.0288
vn -0.0000 -0.9963 0.0855
vn -0.0000 -0.6259 0.7799
vn 0.6484 -0.0000 0.7613
vn -0.7020 -0.0000 0.7122
vn -0.0000 -0.9003 0.4352
vn -0.0000 -0.8640 0.5035
vn -0.5315 -0.0000 0.8471
vn -0.0000 0.6259 0.7799
vn 0.5315 -0.0000 0.8471
vn -0.0000 -0.0000 1.0000
vn -0.7465 -0.0000 0.6654
vn -0.0000 0.8640 0.5035
vn 0.8578 -0.0000 0.5140
vn -0.0000 -0.9877 0.1561
vn -0.9550 -0.0000 0.2966
vn 0.9050 -0.0000 0.4254
vn -0.0000 0.9112 0.4121
vn -0.0000 -0.9857 0.1683
vn -0.0000 0.9775 -0.2109
vt 0.536355 0.288990
vt 0.333375 0.502280
vt 0.328159 0.294209
vt 0.958026 0.463465
vt 0.791676 0.556214
vt 0.749830 0.458254
vt 0.963235 0.255299
vt 0.355553 0.616659
vt 0.382947 0.687732
vt 0.355553 0.708212
vt 0.541570 0.500247
vt 0.749830 0.294048
vt 0.749830 0.500247
vt 0.749830 0.873281
vt 0.958091 0.666097
vt 0.958091 0.873281
vt 0.713178 0.769179
vt 0.619582 0.699500
vt 0.651837 0.699500
vt 0.559893 0.597565
vt 0.768154 0.974485
vt 0.499719 0.594660
vt 0.328159 0.598960
vt 0.069519 0.399312
vt 0.058407 0.515992
vt 0.055421 0.399312
vt 0.713178 0.597565
vt 0.619582 0.667244
vt 0.541570 0.597565
vt 0.541570 0.769179
vt 0.651837 0.667244
vt 0.056274 0.524475
vt 0.064401 0.532602
vt 0.056274 0.532602
vt 0.072839 0.636471
vt 0.092189 0.750226
vt 0.084219 0.751814
vt 0.049666 0.403427
vt 0.027963 0.516863
vt 0.035899 0.400389
vt 0.089590 0.399038
vt 0.078477 0.515006
vt 0.075491 0.399038
vt 0.436321 0.687732
vt 0.419167 0.651512
vt 0.436321 0.634358
vt 0.447106 0.708212
vt 0.355940 0.160346
vt 0.419577 0.138711
vt 0.447464 0.158052
vt 0.700886 0.159467
vt 0.629813 0.138711
vt 0.683187 0.138711
vt 0.436409 0.815831
vt 0.415627 0.770565
vt 0.436409 0.764313
vt 0.400101 0.651512
vt 0.382947 0.634358
vt 0.400101 0.670577
vt 0.419167 0.670577
vt 0.415626 0.996253
vt 0.441494 0.970386
vt 0.441494 0.996253
vt 0.435003 0.918868
vt 0.415627 0.880175
vt 0.435003 0.867349
vt 0.433396 0.918868
vt 0.415626 0.964134
vt 0.415626 0.938267
vt 0.415626 0.867349
vt 0.435126 0.828656
vt 0.435126 0.854524
vt 0.588853 0.180223
vt 0.718585 0.180223
vt 0.475351 0.177393
vt 0.816034 0.138711
vt 0.945725 0.141957
vt 0.749830 0.666097
vt 0.910808 0.560508
vt 0.609333 0.159467
vt 0.345660 0.180644
vt 0.457891 0.728692
vt 0.328159 0.598960
vt 0.328159 0.728692
vt 0.092576 0.281488
vt 0.072505 0.281488
vt 0.052435 0.285813
vt 0.032836 0.281488
vt 0.072505 0.518928
vt 0.086666 0.633717
vt 0.052435 0.281488
vt 0.015345 0.868589
vt 0.031488 0.889040
vt 0.015345 0.889040
vt 0.015345 0.786783
vt 0.031497 0.807234
vt 0.015345 0.807234
vt 0.015345 0.827686
vt 0.031495 0.848137
vt 0.015345 0.848137
vt 0.015345 0.745880
vt 0.031498 0.766331
vt 0.015345 0.766331
vt 0.015345 0.941797
vt 0.031338 0.957950
vt 0.015345 0.957950
vt 0.031414 0.941797
vt 0.015345 0.925644
vt 0.031414 0.925644
vt 0.107304 0.757464
vt 0.129515 0.868574
vt 0.107303 0.868574
vt 0.138749 0.884694
vt 0.226502 0.995804
vt 0.138749 0.995804
vt 0.301850 0.657592
vt 0.324071 0.768703
vt 0.301849 0.768703
vt 0.205385 0.649495
vt 0.293140 0.760605
vt 0.205385 0.760605
vt 0.292726 0.972449
vt 0.270721 0.884694
vt 0.292726 0.884694
vt 0.270721 0.972449
vt 0.248611 0.884694
vt 0.270721 0.884694
vt 0.129515 0.757464
vt 0.151726 0.868574
vt 0.129515 0.868574
vt 0.107304 0.646353
vt 0.195056 0.757464
vt 0.301850 0.768702
vt 0.324071 0.879813
vt 0.301850 0.879813
vt 0.293140 0.871716
vt 0.205385 0.871716
vt 0.107304 0.868574
vt 0.129308 0.956329
vt 0.107304 0.956329
vt 0.248611 0.972449
vt 0.226502 0.884694
vt 0.248611 0.884694
vt 0.041224 0.888552
vt 0.057367 0.909003
vt 0.041224 0.909003
vt 0.041224 0.806746
vt 0.057376 0.827198
vt 0.041224 0.827198
vt 0.041224 0.847649
vt 0.057374 0.868100
vt 0.041224 0.868100
vt 0.041224 0.765843
vt 0.057377 0.786295
vt 0.041224 0.786295
vt 0.042527 0.965491
vt 0.058520 0.981643
vt 0.042527 0.981643
vt 0.057293 0.925156
vt 0.041224 0.909003
vt 0.057293 0.909003
vt 0.541570 0.497062
vt 0.963235 0.560508
vt 0.755040 0.250089
vt 0.541570 0.294048
vt 0.731507 0.597565
vt 0.939767 0.974485
vt 0.066534 0.515992
vt 0.064401 0.524475
vt 0.035899 0.518614
vt 0.086604 0.515006
vt 0.366220 0.140048
vt 0.415627 0.796432
vt 0.415626 0.970386
vt 0.415627 0.906042
vt 0.433396 0.970386
vt 0.415626 0.815831
vt 0.781076 0.560508
vt 0.092189 0.515006
vt 0.031488 0.868589
vt 0.031497 0.786783
vt 0.031495 0.827686
vt 0.031498 0.745880
vt 0.031338 0.941797
vt 0.129515 0.757464
vt 0.226502 0.884694
vt 0.324071 0.657592
vt 0.293140 0.649495
vt 0.248611 0.972449
vt 0.151726 0.757464
vt 0.195056 0.646353
vt 0.324071 0.768702
vt 0.293140 0.760605
vt 0.129308 0.868574
vt 0.226502 0.972449
vt 0.057367 0.888552
vt 0.057376 0.806746
vt 0.057374 0.847649
vt 0.057377 0.765843
vt 0.058520 0.965491
vt 0.041224 0.925156
s 0
usemtl Material.003
f 2/1/1 3/2/1 1/3/1
f 7/4/2 12/5/2 8/6/2
f 8/6/3 5/7/3 7/4/3
f 37/8/4 23/9/4 39/10/4
f 7/11/5 1/12/5 3/13/5
f 4/14/6 6/15/6 8/16/6
f 11/17/7 14/18/7 15/19/7
f 3/13/8 11/20/8 7/11/8
f 8/16/9 9/21/9 4/14/9
f 3/2/10 9/22/10 10/23/10
f 41/24/11 17/25/11 42/26/11
f 12/27/12 13/28/12 9/29/12
f 9/29/13 14/18/13 10/30/13
f 11/17/14 16/31/14 12/27/14
f 17/32/15 19/33/15 18/34/15
f 43/35/16 17/36/16 18/37/16
f 44/38/17 20/39/17 41/40/17
f 43/41/18 19/42/18 44/43/18
f 24/44/19 25/45/19 21/46/19
f 40/47/20 23/9/20 24/44/20
f 38/48/21 22/49/21 37/50/21
f 38/51/22 24/52/22 21/53/22
f 28/54/23 29/55/23 25/56/23
f 21/46/24 26/57/24 22/58/24
f 23/9/25 26/57/25 27/59/25
f 24/44/26 27/59/26 28/60/26
f 31/61/27 29/62/27 32/63/27
f 25/64/28 30/65/28 26/66/28
f 27/67/29 30/68/29 31/69/29
f 28/70/30 31/71/30 32/72/30
f 1/12/31 35/73/31 36/74/31
f 1/3/32 33/75/32 2/1/32
f 5/7/33 34/76/33 35/77/33
f 2/78/34 34/79/34 6/15/34
f 36/74/22 40/80/22 38/51/22
f 36/81/21 37/50/21 33/75/21
f 35/82/20 39/10/20 40/47/20
f 33/83/4 39/10/4 34/84/4
f 14/85/35 44/43/35 15/86/35
f 15/87/17 41/40/17 16/88/17
f 14/89/16 42/90/16 43/35/16
f 16/86/36 42/26/36 13/91/36
f 46/92/1 47/93/1 45/94/1
f 48/95/15 51/96/15 47/97/15
f 52/98/3 49/99/3 51/100/3
f 50/101/27 45/102/27 49/103/27
f 51/104/5 45/105/5 47/106/5
f 48/107/6 50/108/6 52/109/6
f 54/110/1 55/111/1 53/112/1
f 56/113/15 59/114/15 55/115/15
f 60/116/3 57/117/3 59/118/3
f 58/119/27 53/120/27 57/121/27
f 59/122/5 53/123/5 55/124/5
f 56/125/6 58/126/6 60/127/6
f 62/128/1 63/129/1 61/130/1
f 64/131/15 67/132/15 63/110/15
f 68/133/3 65/134/3 67/135/3
f 66/121/27 61/136/27 65/137/27
f 67/138/5 61/139/5 63/140/5
f 64/141/6 66/142/6 68/143/6
f 70/144/1 71/145/1 69/146/1
f 72/147/15 75/148/15 71/149/15
f 76/150/3 73/151/3 75/152/3
f 74/153/27 69/154/27 73/155/27
f 75/156/5 69/157/5 71/158/5
f 72/159/6 74/160/6 76/161/6
f 2/1/1 4/162/1 3/2/1
f 7/4/2 11/163/2 12/5/2
f 8/6/3 6/164/3 5/7/3
f 37/8/4 22/58/4 23/9/4
f 7/11/5 5/165/5 1/12/5
f 4/14/6 2/78/6 6/15/6
f 11/17/7 10/30/7 14/18/7
f 3/13/8 10/166/8 11/20/8
f 8/16/9 12/167/9 9/21/9
f 3/2/10 4/162/10 9/22/10
f 41/24/11 20/168/11 17/25/11
f 12/27/12 16/31/12 13/28/12
f 9/29/13 13/28/13 14/18/13
f 11/17/14 15/19/14 16/31/14
f 17/32/15 20/169/15 19/33/15
f 43/35/16 42/90/16 17/36/16
f 44/38/17 19/170/17 20/39/17
f 43/41/18 18/171/18 19/42/18
f 24/44/19 28/60/19 25/45/19
f 40/47/20 39/10/20 23/9/20
f 38/48/21 21/172/21 22/49/21
f 38/51/22 40/80/22 24/52/22
f 28/54/23 32/173/23 29/55/23
f 21/46/24 25/45/24 26/57/24
f 23/9/25 22/58/25 26/57/25
f 24/44/26 23/9/26 27/59/26
f 31/61/27 30/174/27 29/62/27
f 25/64/28 29/175/28 30/65/28
f 27/67/29 26/176/29 30/68/29
f 28/70/30 27/177/30 31/71/30
f 1/12/31 5/165/31 35/73/31
f 1/3/32 36/81/32 33/75/32
f 5/7/33 6/164/33 34/76/33
f 2/78/34 33/178/34 34/79/34
f 36/74/22 35/73/22 40/80/22
f 36/81/21 38/48/21 37/50/21
f 35/82/20 34/84/20 39/10/20
f 33/83/4 37/8/4 39/10/4
f 14/85/35 43/41/35 44/43/35
f 15/87/17 44/38/17 41/40/17
f 14/89/16 13/179/16 42/90/16
f 16/86/36 41/24/36 42/26/36
f 46/92/1 48/180/1 47/93/1
f 48/95/15 52/181/15 51/96/15
f 52/98/3 50/182/3 49/99/3
f 50/101/27 46/183/27 45/102/27
f 51/104/5 49/184/5 45/105/5
f 48/107/6 46/104/6 50/108/6
f 54/110/1 56/185/1 55/111/1
f 56/113/15 60/186/15 59/114/15
f 60/116/3 58/187/3 57/117/3
f 58/119/27 54/188/27 53/120/27
f 59/122/5 57/125/5 53/123/5
f 56/125/6 54/189/6 58/126/6
f 62/128/1 64/190/1 63/129/1
f 64/131/15 68/191/15 67/132/15
f 68/133/3 66/192/3 65/134/3
f 66/121/27 62/193/27 61/136/27
f 67/138/5 65/194/5 61/139/5
f 64/141/6 62/195/6 66/142/6
f 70/144/1 72/196/1 71/145/1
f 72/147/15 76/197/15 75/148/15
f 76/150/3 74/198/3 73/151/3
f 74/153/27 70/199/27 69/154/27
f 75/156/5 73/200/5 69/157/5
f 72/159/6 70/201/6 74/160/6
